<svg width="844" height="205" viewBox="0 0 844 205" fill="none" xmlns="http://www.w3.org/2000/svg">
<g filter="url(#filter0_n_22_111)">
<path d="M0 156.23V4.76049H54.0964C71.5515 4.76049 85.9772 8.0784 97.3735 14.7142C108.914 21.35 117.497 30.3661 123.123 41.7624C128.894 53.1587 131.779 66.1419 131.779 80.7118C131.779 95.1375 128.894 108.049 123.123 119.445C117.497 130.841 108.914 139.857 97.3735 146.493C85.9772 152.985 71.5515 156.23 54.0964 156.23H0ZM50.4178 32.0251H30.294V128.966H50.4178C62.3912 128.966 72.0564 126.874 79.4135 122.691C86.7706 118.363 92.1081 112.593 95.426 105.38C98.7439 98.0227 100.403 89.8 100.403 80.7118C100.403 71.4794 98.7439 63.2567 95.426 56.0439C92.1081 48.6868 86.7706 42.8443 79.4135 38.5166C72.0564 34.1889 62.3912 32.0251 50.4178 32.0251Z" fill="#F44A22"/>
<path d="M197.523 155.511C185.982 155.511 175.812 152.843 167.012 147.505C158.213 142.168 151.361 135.099 146.456 126.299C141.695 117.355 139.315 107.474 139.315 96.6546C139.315 85.8353 141.84 75.9537 146.889 67.0098C151.938 57.9216 158.79 50.7087 167.445 45.3712C176.245 40.0337 186.271 37.3649 197.523 37.3649C208.775 37.3649 218.656 40.0337 227.168 45.3712C235.823 50.7087 242.531 57.9216 247.292 67.0098C252.196 75.9537 254.649 85.8353 254.649 96.6546C254.649 98.2414 254.576 99.9004 254.432 101.631C254.288 103.363 254.072 105.166 253.783 107.041H169.609C171.196 113.677 174.37 119.087 179.13 123.27C184.035 127.453 190.166 129.545 197.523 129.545C203.87 129.545 209.352 128.103 213.968 125.217C218.729 122.332 222.407 118.726 225.004 114.398L247.724 131.493C243.252 138.561 236.544 144.332 227.6 148.804C218.656 153.275 208.631 155.511 197.523 155.511ZM197.09 62.4657C190.166 62.4657 184.251 64.5574 179.346 68.7409C174.442 72.9243 171.196 78.4061 169.609 85.1862H225.22C223.633 78.9831 220.315 73.6456 215.266 69.1736C210.362 64.7017 204.303 62.4657 197.09 62.4657Z" fill="#F44A22"/>
<path d="M302.82 155.511C283.922 155.511 268.342 148.948 256.08 135.82L275.772 117.86C283.994 127.093 292.794 131.709 302.171 131.709C307.22 131.709 311.042 130.627 313.639 128.463C316.38 126.155 317.75 123.342 317.75 120.024C317.75 118.005 317.245 116.274 316.236 114.831C315.37 113.388 313.423 112.018 310.393 110.72C307.508 109.421 303.108 108.123 297.194 106.825C287.096 104.372 279.594 101.343 274.69 97.7365C269.785 94.1301 266.539 90.0909 264.952 85.6189C263.365 81.147 262.572 76.5307 262.572 71.7703C262.572 61.9608 266.251 53.8103 273.608 47.3187C281.109 40.6829 291.423 37.3649 304.551 37.3649C313.639 37.3649 321.429 38.7354 327.92 41.4763C334.412 44.2172 340.543 49.3383 346.313 56.8397L325.107 73.0686C322.367 68.7409 319.265 65.6393 315.803 63.764C312.485 61.8886 308.951 60.951 305.2 60.951C301.161 60.951 297.771 61.7444 295.03 63.3312C292.433 64.9181 291.135 67.4426 291.135 70.9047C291.135 72.7801 292 74.6554 293.732 76.5307C295.463 78.2618 299.646 79.9929 306.282 81.724C317.245 84.4649 325.612 87.7107 331.383 91.4613C337.153 95.0678 341.12 99.1791 343.284 103.795C345.448 108.412 346.53 113.533 346.53 119.159C346.53 126.083 344.582 132.286 340.687 137.768C336.937 143.25 331.743 147.577 325.107 150.751C318.616 153.925 311.187 155.511 302.82 155.511Z" fill="#F44A22"/>
<path d="M372.413 34.4053C367.508 34.4053 363.325 32.7464 359.863 29.4284C356.545 25.9663 354.886 21.855 354.886 17.0945C354.886 12.4782 356.545 8.51118 359.863 5.19326C363.325 1.73109 367.508 0 372.413 0C377.462 0 381.646 1.73109 384.963 5.19326C388.281 8.51118 389.94 12.4782 389.94 17.0945C389.94 21.9992 388.281 26.1105 384.963 29.4284C381.646 32.7464 377.462 34.4053 372.413 34.4053ZM357.915 156.23V43.7099H387.127V156.23H357.915Z" fill="#F44A22"/>
<path d="M459.366 130.264C469.031 130.264 476.533 127.235 481.87 121.176C487.208 115.117 489.877 107.688 489.877 98.8882C489.877 90.0885 487.208 82.6593 481.87 76.6005C476.533 70.5417 469.031 67.5123 459.366 67.5123C449.845 67.5123 442.416 70.5417 437.079 76.6005C431.885 82.6593 429.289 90.0885 429.289 98.8882C429.289 104.514 430.443 109.707 432.751 114.468C435.203 119.228 438.665 123.051 443.137 125.936C447.609 128.822 453.019 130.264 459.366 130.264Z" fill="#F44A22"/>
<path d="M534.996 156.23V43.7099H563.776V60.1552C569.69 47.4606 581.159 41.1133 598.181 41.1133C606.259 41.1133 613.544 42.9886 620.036 46.7393C626.527 50.49 631.649 55.8275 635.399 62.7518C639.15 69.6762 641.025 77.8988 641.025 87.4198V156.23H611.813V94.5605C611.813 84.751 609.577 77.6824 605.105 73.3547C600.633 68.8827 594.791 66.6468 587.578 66.6468C581.375 66.6468 575.893 68.8827 571.133 73.3547C566.517 77.6824 564.208 84.751 564.208 94.5605V156.23H534.996Z" fill="#F44A22"/>
<path d="M711.227 155.511C699.687 155.511 689.516 152.843 680.717 147.505C671.917 142.168 665.065 135.099 660.16 126.299C655.4 117.355 653.019 107.474 653.019 96.6546C653.019 85.8353 655.544 75.9537 660.593 67.0098C665.642 57.9216 672.494 50.7087 681.15 45.3712C689.949 40.0337 699.975 37.3649 711.227 37.3649C722.479 37.3649 732.361 40.0337 740.872 45.3712C749.527 50.7087 756.235 57.9216 760.996 67.0098C765.901 75.9537 768.353 85.8353 768.353 96.6546C768.353 98.2414 768.281 99.9004 768.137 101.631C767.992 103.363 767.776 105.166 767.487 107.041H683.313C684.9 113.677 688.074 119.087 692.834 123.27C697.739 127.453 703.87 129.545 711.227 129.545C717.574 129.545 723.056 128.103 727.672 125.217C732.433 122.332 736.112 118.726 738.708 114.398L761.429 131.493C756.957 138.561 750.249 144.332 741.305 148.804C732.361 153.275 722.335 155.511 711.227 155.511ZM710.794 62.4657C703.87 62.4657 697.956 64.5574 693.051 68.7409C688.146 72.9243 684.9 78.4061 683.313 85.1862H738.924C737.338 78.9831 734.02 73.6456 728.971 69.1736C724.066 64.7017 718.007 62.4657 710.794 62.4657Z" fill="#F44A22"/>
<path d="M781.177 156.23V43.7099H809.524V65.132C811.399 57.0537 815.222 50.9227 820.992 46.7393C826.762 42.4116 834.552 40.5362 844.362 41.1133V68.5942H840.25C831.884 68.5942 824.815 71.263 819.045 76.6005C813.274 81.938 810.389 89.2951 810.389 98.6718V156.23H781.177Z" fill="#F44A22"/>
</g>
<path d="M454.602 40.0123C464.059 40.0123 471.532 41.6816 476.922 45.1217C481.474 47.9512 485.21 51.5539 488.124 55.9225V42.8248H518.669V146.275C518.669 157.942 516.116 168.056 510.974 176.582L510.975 176.583C505.985 185.095 499.008 191.629 490.065 196.175C481.12 200.868 470.806 203.202 459.146 203.202C447.671 203.202 437.401 201.604 428.348 198.392C419.382 195.305 411.464 189.725 404.595 181.686L404.105 181.115L404.592 180.542L422.769 159.12L423.43 158.34L424.104 159.107C429.375 165.09 434.815 169.098 440.414 171.198C446.072 173.319 452.384 174.387 459.362 174.387C464.4 174.387 469.08 173.13 473.416 170.612C477.741 168.101 481.164 164.543 483.688 159.918L483.695 159.903L483.703 159.889C486.355 155.423 487.691 150.316 487.691 144.544V142.577C484.774 146.73 481.035 150.162 476.483 152.87L476.484 152.871C471.1 156.161 463.777 157.76 454.602 157.76C444.202 157.76 434.734 155.122 426.222 149.839L426.216 149.835C417.865 144.56 411.271 137.525 406.439 128.741L406.437 128.735C401.601 119.796 399.189 109.84 399.189 98.8864C399.189 87.9327 401.601 77.9768 406.437 69.0377C411.268 60.1069 417.866 53.0655 426.226 47.9323C434.737 42.6502 444.203 40.0123 454.602 40.0123ZM459.362 68.3932C450.045 68.3932 442.876 71.3482 437.736 77.1823C432.7 83.0625 430.167 90.2787 430.167 98.8864C430.167 104.387 431.295 109.448 433.541 114.081C435.922 118.696 439.276 122.396 443.611 125.193C447.915 127.97 453.152 129.38 459.362 129.38C468.828 129.379 476.066 126.421 481.203 120.59C486.385 114.708 488.989 107.492 488.989 98.8864C488.989 90.2808 486.385 83.0648 481.203 77.1823C476.066 71.3515 468.828 68.3933 459.362 68.3932Z" stroke="#F44A22" stroke-width="1.76596"/>
<path d="M459.146 202.319C447.749 202.319 437.579 200.732 428.635 197.558C419.835 194.529 412.046 189.047 405.266 181.113L423.442 159.691C428.779 165.75 434.333 169.861 440.104 172.025C445.874 174.189 452.293 175.271 459.362 175.271C464.555 175.271 469.388 173.972 473.86 171.376C478.332 168.779 481.866 165.101 484.463 160.34C487.204 155.724 488.574 150.458 488.574 144.544V139.567C485.545 144.76 481.361 148.944 476.024 152.117C470.83 155.291 463.69 156.878 454.601 156.878C444.359 156.878 435.055 154.281 426.688 149.088C418.465 143.895 411.973 136.97 407.213 128.315C402.453 119.515 400.072 109.706 400.072 98.8866C400.072 88.0673 402.453 78.2578 407.213 69.4582C411.973 60.6585 418.465 53.7341 426.688 48.6852C435.055 43.4919 444.359 40.8953 454.601 40.8953C463.978 40.8953 471.263 42.5542 476.456 45.8721C481.794 49.1901 485.977 53.5899 489.007 59.0717V43.7083H517.786V146.275C517.786 157.816 515.261 167.769 510.213 176.136C505.308 184.503 498.456 190.923 489.656 195.395C480.856 200.011 470.686 202.319 459.146 202.319ZM459.362 130.262C469.027 130.262 476.528 127.233 481.866 121.174C487.203 115.116 489.872 107.686 489.872 98.8866C489.872 90.0869 487.203 82.6577 481.866 76.5989C476.528 70.5401 469.027 67.5107 459.362 67.5107C449.841 67.5107 442.412 70.5401 437.074 76.5989C431.881 82.6577 429.284 90.0869 429.284 98.8866C429.284 104.513 430.438 109.706 432.746 114.466C435.199 119.227 438.661 123.05 443.133 125.935C447.605 128.82 453.015 130.262 459.362 130.262Z" fill="#FFE7E2"/>
<path d="M445.237 111.004C444.374 111.907 444.405 113.338 445.308 114.202C446.21 115.065 447.641 115.034 448.505 114.131L446.871 112.568L445.237 111.004ZM474.018 86.511C473.991 85.2624 472.956 84.2725 471.708 84.3L451.36 84.748C450.112 84.7755 449.122 85.81 449.149 87.0586C449.177 88.3073 450.211 89.2972 451.46 89.2697L469.546 88.8714L469.945 106.958C469.972 108.207 471.007 109.197 472.255 109.169C473.504 109.142 474.494 108.107 474.466 106.858L474.018 86.511ZM446.871 112.568L448.505 114.131L473.391 88.1242L471.757 86.5608L470.124 84.9974L445.237 111.004L446.871 112.568Z" fill="white"/>
<defs>
<filter id="filter0_n_22_111" x="0" y="0" width="844.361" height="156.23" filterUnits="userSpaceOnUse" color-interpolation-filters="sRGB">
<feFlood flood-opacity="0" result="BackgroundImageFix"/>
<feBlend mode="normal" in="SourceGraphic" in2="BackgroundImageFix" result="shape"/>
<feTurbulence type="fractalNoise" baseFrequency="2 2" stitchTiles="stitch" numOctaves="3" result="noise" seed="6559" />
<feColorMatrix in="noise" type="luminanceToAlpha" result="alphaNoise" />
<feComponentTransfer in="alphaNoise" result="coloredNoise1">
<feFuncA type="discrete" tableValues="1 1 1 1 1 1 1 1 1 1 1 1 1 1 1 1 1 1 1 1 1 1 1 1 1 1 1 1 1 1 1 1 1 1 1 1 1 1 1 1 1 1 1 1 1 1 1 1 1 1 1 0 0 0 0 0 0 0 0 0 0 0 0 0 0 0 0 0 0 0 0 0 0 0 0 0 0 0 0 0 0 0 0 0 0 0 0 0 0 0 0 0 0 0 0 0 0 0 0 0 "/>
</feComponentTransfer>
<feComposite operator="in" in2="shape" in="coloredNoise1" result="noise1Clipped" />
<feFlood flood-color="rgba(0, 0, 0, 0.25)" result="color1Flood" />
<feComposite operator="in" in2="noise1Clipped" in="color1Flood" result="color1" />
<feMerge result="effect1_noise_22_111">
<feMergeNode in="shape" />
<feMergeNode in="color1" />
</feMerge>
</filter>
</defs>
</svg>
