<svg width="766" height="156" viewBox="0 0 766 156" fill="none" xmlns="http://www.w3.org/2000/svg">
<path d="M567.82 30.5073C573.977 30.5073 579.695 31.7609 584.962 34.2759L585.96 34.7368C590.909 37.0976 595.258 40.3118 599.003 44.3755L599.742 45.1763C603.386 49.2218 606.274 53.9149 608.408 59.2476C610.691 64.8413 611.83 70.8292 611.83 77.2017C611.83 85.7354 609.837 93.5491 605.843 100.625C601.969 107.573 596.723 113.162 590.11 117.38L590.102 117.386C583.465 121.505 576.03 123.56 567.82 123.56C560.235 123.56 554.174 122.204 549.729 119.396L549.722 119.392L549.715 119.387C546.264 117.117 543.42 114.271 541.187 110.858V154.939H516.764V32.353H540.851V43.9116C543.08 40.3483 545.919 37.3834 549.366 35.0249L549.375 35.0181C553.935 31.9782 560.114 30.5073 567.82 30.5073Z" fill="#FFE7E2" stroke="#F44A22" stroke-width="1.77"/>
<path d="M-1.27734 122.494V5.03398H40.6725C54.2084 5.03398 65.395 7.60691 74.2324 12.7528C83.1817 17.8986 89.8378 24.8903 94.2006 33.7277C98.6752 42.5651 100.913 52.6331 100.913 63.9316C100.913 75.1182 98.6752 85.1303 94.2006 93.9677C89.8378 102.805 83.1817 109.797 74.2324 114.943C65.395 119.977 54.2084 122.494 40.6725 122.494H-1.27734ZM37.8199 26.1767H22.2146V101.351H37.8199C47.1048 101.351 54.5999 99.7288 60.3051 96.4847C66.0103 93.1287 70.1493 88.6541 72.7222 83.0607C75.2952 77.3556 76.5816 70.9792 76.5816 63.9316C76.5816 56.7722 75.2952 50.3958 72.7222 44.8025C70.1493 39.0973 66.0103 34.5667 60.3051 31.2107C54.5999 27.8547 47.1048 26.1767 37.8199 26.1767Z" fill="#F44A22"/>
<path d="M151.895 122.675C142.945 122.675 135.059 120.605 128.235 116.466C121.411 112.327 116.098 106.846 112.294 100.022C108.602 93.0864 106.757 85.4235 106.757 77.0336C106.757 68.6436 108.714 60.9807 112.63 54.045C116.545 46.9974 121.859 41.4041 128.571 37.2651C135.394 33.126 143.169 31.0565 151.895 31.0565C160.62 31.0565 168.283 33.126 174.883 37.2651C181.595 41.4041 186.797 46.9974 190.489 54.045C194.292 60.9807 196.194 68.6436 196.194 77.0336C196.194 78.2641 196.138 79.5506 196.026 80.8929C195.914 82.2353 195.746 83.6337 195.523 85.0879H130.249C131.479 90.2338 133.94 94.4288 137.632 97.6729C141.435 100.917 146.19 102.539 151.895 102.539C156.817 102.539 161.068 101.42 164.648 99.1831C168.339 96.9458 171.192 94.1491 173.205 90.7931L190.824 104.049C187.356 109.531 182.155 114.005 175.219 117.473C168.283 120.941 160.508 122.675 151.895 122.675ZM151.559 50.5212C146.19 50.5212 141.603 52.1433 137.8 55.3874C133.996 58.6315 131.479 62.8825 130.249 68.1402H173.373C172.143 63.3299 169.57 59.1909 165.654 55.723C161.851 52.2552 157.152 50.5212 151.559 50.5212Z" fill="#F44A22"/>
<path d="M228.242 122.494L191.83 35.2379H218.678L236.129 85.0743C237.695 89.549 238.925 94.1915 239.82 99.0017C240.715 94.1915 241.946 89.549 243.512 85.0743L260.963 35.2379H287.308L251.063 122.494H228.242Z" fill="#F44A22"/>
<path d="M327.724 122.675C318.774 122.675 310.888 120.605 304.064 116.466C297.24 112.327 291.926 106.846 288.123 100.022C284.431 93.0864 282.586 85.4235 282.586 77.0336C282.586 68.6436 284.543 60.9807 288.459 54.045C292.374 46.9974 297.688 41.4041 304.4 37.2651C311.223 33.126 318.998 31.0565 327.724 31.0565C336.449 31.0565 344.112 33.126 350.712 37.2651C357.424 41.4041 362.626 46.9974 366.318 54.045C370.121 60.9807 372.023 68.6436 372.023 77.0336C372.023 78.2641 371.967 79.5506 371.855 80.8929C371.743 82.2353 371.575 83.6337 371.352 85.0879H306.078C307.308 90.2338 309.769 94.4288 313.461 97.6729C317.264 100.917 322.019 102.539 327.724 102.539C332.646 102.539 336.897 101.42 340.476 99.1831C344.168 96.9458 347.021 94.1491 349.034 90.7931L366.653 104.049C363.185 109.531 357.984 114.005 351.048 117.473C344.112 120.941 336.337 122.675 327.724 122.675ZM327.388 50.5212C322.019 50.5212 317.432 52.1433 313.629 55.3874C309.825 58.6315 307.308 62.8825 306.078 68.1402H349.202C347.972 63.3299 345.399 59.1909 341.483 55.723C337.68 52.2552 332.981 50.5212 327.388 50.5212Z" fill="#F44A22"/>
<path d="M381.967 122.494V0H404.62V122.494H381.967Z" fill="#F44A22"/>
<path d="M461.143 122.675C452.193 122.675 444.195 120.605 437.147 116.466C430.1 112.327 424.562 106.846 420.535 100.022C416.62 93.0864 414.662 85.4235 414.662 77.0336C414.662 68.6436 416.62 60.9807 420.535 54.045C424.562 47.1093 430.1 41.5719 437.147 37.4329C444.195 33.2938 452.193 31.2243 461.143 31.2243C470.204 31.2243 478.202 33.2938 485.138 37.4329C492.186 41.5719 497.667 47.1093 501.582 54.045C505.61 60.9807 507.623 68.6436 507.623 77.0336C507.623 85.4235 505.61 93.0864 501.582 100.022C497.667 106.846 492.186 112.327 485.138 116.466C478.202 120.605 470.204 122.675 461.143 122.675ZM461.143 102.036C465.953 102.036 470.148 100.917 473.728 98.6797C477.307 96.3305 480.048 93.2542 481.95 89.4507C483.963 85.6473 484.97 81.5082 484.97 77.0336C484.97 72.447 483.963 68.2521 481.95 64.4486C480.048 60.6451 477.307 57.6247 473.728 55.3874C470.148 53.0382 465.953 51.8636 461.143 51.8636C456.332 51.8636 452.137 53.0382 448.558 55.3874C444.978 57.6247 442.181 60.6451 440.168 64.4486C438.266 68.2521 437.315 72.447 437.315 77.0336C437.315 81.5082 438.266 85.6473 440.168 89.4507C442.181 93.2542 444.978 96.3305 448.558 98.6797C452.137 100.917 456.332 102.036 461.143 102.036Z" fill="#F44A22"/>
<path d="M662.012 122.675C653.062 122.675 645.176 120.605 638.352 116.466C631.528 112.327 626.215 106.846 622.411 100.022C618.719 93.0864 616.874 85.4235 616.874 77.0336C616.874 68.6436 618.831 60.9807 622.747 54.045C626.662 46.9974 631.976 41.4041 638.688 37.2651C645.511 33.126 653.286 31.0565 662.012 31.0565C670.737 31.0565 678.4 33.126 685 37.2651C691.712 41.4041 696.914 46.9974 700.606 54.045C704.409 60.9807 706.311 68.6436 706.311 77.0336C706.311 78.2641 706.255 79.5506 706.143 80.8929C706.031 82.2353 705.863 83.6337 705.64 85.0879H640.366C641.596 90.2338 644.057 94.4288 647.749 97.6729C651.552 100.917 656.307 102.539 662.012 102.539C666.934 102.539 671.185 101.42 674.764 99.1831C678.456 96.9458 681.309 94.1491 683.322 90.7931L700.941 104.049C697.473 109.531 692.272 114.005 685.336 117.473C678.4 120.941 670.625 122.675 662.012 122.675ZM661.676 50.5212C656.307 50.5212 651.72 52.1433 647.917 55.3874C644.113 58.6315 641.596 62.8825 640.366 68.1402H683.49C682.26 63.3299 679.687 59.1909 675.771 55.723C671.968 52.2552 667.269 50.5212 661.676 50.5212Z" fill="#F44A22"/>
<path d="M716.256 122.494V35.2379H738.237V51.85C739.692 45.5855 742.656 40.8312 747.131 37.5871C751.605 34.2311 757.646 32.7768 765.253 33.2243V54.5348H762.065C755.577 54.5348 750.095 56.6044 745.62 60.7434C741.146 64.8825 738.908 70.5876 738.908 77.859V122.494H716.256Z" fill="#F44A22"/>
<circle cx="567.481" cy="78.0513" r="20.8115" fill="#F44A22"/>
<path d="M577 77.4937H557" stroke="white" stroke-width="2" stroke-linecap="round" stroke-linejoin="round"/>
<path d="M560.45 70.6037L557 77.4937V83.4937C557 84.0241 557.211 84.5328 557.586 84.9079C557.961 85.2829 558.47 85.4937 559 85.4937H575C575.53 85.4937 576.039 85.2829 576.414 84.9079C576.789 84.5328 577 84.0241 577 83.4937V77.4937L573.55 70.6037C573.384 70.2704 573.129 69.99 572.813 69.7939C572.497 69.5978 572.132 69.4938 571.76 69.4937H562.24C561.868 69.4938 561.503 69.5978 561.187 69.7939C560.871 69.99 560.616 70.2704 560.45 70.6037Z" stroke="white" stroke-width="2" stroke-linecap="round" stroke-linejoin="round"/>
<path d="M561 81.4937H561.01" stroke="white" stroke-width="2" stroke-linecap="round" stroke-linejoin="round"/>
<path d="M565 81.4937H565.01" stroke="white" stroke-width="2" stroke-linecap="round" stroke-linejoin="round"/>
</svg>
