<svg width="66" height="43" viewBox="0 0 66 43" fill="none" xmlns="http://www.w3.org/2000/svg">
<path d="M5.2832 37.3311L20.5452 5.24042" stroke="#F44A22" stroke-width="10.5215" stroke-linecap="round"/>
<path d="M23.0537 25.5066C26.7021 25.5068 29.6582 28.4229 29.6582 32.0173C29.6581 35.6117 26.702 38.5269 23.0537 38.5271C19.4052 38.5271 16.4484 35.6118 16.4482 32.0173C16.4482 28.4227 19.4052 25.5066 23.0537 25.5066Z" fill="#F44A22" stroke="#F44A22" stroke-width="0.131519"/>
<path d="M59.832 5.23975L44.57 37.3304" stroke="#F44A22" stroke-width="10.5215" stroke-linecap="round"/>
<path d="M37.8994 26.7434C34.2511 26.7432 31.2949 23.8271 31.2949 20.2327C31.295 16.6383 34.2511 13.7231 37.8994 13.7229C41.5479 13.7229 44.5048 16.6382 44.5049 20.2327C44.5049 23.8273 41.548 26.7434 37.8994 26.7434Z" fill="#F44A22" stroke="#F44A22" stroke-width="0.131519"/>
</svg>
